<?xml version="1.0" standalone="no"?>
<!DOCTYPE svg PUBLIC "-//W3C//DTD SVG 20010904//EN"
 "http://www.w3.org/TR/2001/REC-SVG-20010904/DTD/svg10.dtd">
<svg version="1.0" xmlns="http://www.w3.org/2000/svg"
 width="352.000000pt" height="352.000000pt" viewBox="0 0 352.000000 352.000000"
 preserveAspectRatio="xMidYMid meet">
<metadata>
Created by potrace 1.14, written by Peter Selinger 2001-2017
</metadata>
<g transform="translate(0.000000,352.000000) scale(0.100000,-0.100000)"
fill="#000000" stroke="none">
<path d="M1339 3426 c-2 -2 -17 -6 -34 -9 -53 -9 -88 -18 -196 -53 -400 -128
-745 -424 -936 -803 -32 -63 -58 -117 -58 -120 0 -3 -3 -10 -7 -16 -20 -33
-75 -233 -92 -336 l-4 -25 163 0 164 1 -6 -30 c-3 -16 -9 -47 -13 -68 -4 -20
-5 -39 -1 -41 4 -3 170 -5 370 -5 331 0 363 2 368 17 65 189 165 333 314 455
55 44 227 134 274 143 l33 6 0 366 c0 202 -1 369 -4 373 -4 7 -154 -22 -229
-45 -27 -9 -53 -16 -57 -16 -5 0 -8 47 -8 105 0 95 -2 105 -18 105 -10 0 -21
-2 -23 -4z"/>
<path d="M1851 3061 l0 -370 82 -31 c244 -93 443 -299 526 -543 l18 -52 124 0
124 -1 28 -71 29 -71 369 0 369 0 0 684 0 684 -150 0 -150 0 0 70 0 70 -684 0
-685 0 0 -369z"/>
<path d="M14 1568 c3 -13 13 -59 22 -103 103 -489 470 -927 944 -1130 47 -20
144 -65 215 -100 72 -35 166 -75 210 -90 90 -30 254 -67 266 -59 4 2 8 169 7
370 0 331 -2 366 -16 370 -55 17 -176 74 -232 109 -69 44 -177 143 -227 210
-44 58 -104 170 -128 240 l-21 60 -109 2 c-61 0 -117 1 -126 2 -11 1 -25 24
-42 69 l-25 67 -371 3 -371 2 4 -22z"/>
<path d="M2477 1583 c-2 -5 -10 -26 -17 -48 -76 -240 -298 -463 -545 -550
l-60 -21 -2 -371 -2 -372 22 5 c12 2 46 8 75 14 29 5 83 19 119 30 36 11 70
20 77 20 7 0 11 -32 10 -105 l-1 -105 31 5 c17 3 56 11 86 17 30 6 57 12 60
13 13 2 92 29 155 52 153 56 328 156 455 261 66 55 193 182 235 236 17 21 35
44 40 50 50 54 162 257 214 387 43 109 97 326 85 338 -3 3 -76 7 -162 8 -86 1
-158 2 -158 2 -1 1 2 18 7 39 4 20 10 52 14 70 l5 32 -369 0 c-204 0 -372 -3
-374 -7z"/>
</g>
</svg>
